<svg width="1080" height="1080" viewBox="0 0 1080 1080" fill="none" xmlns="http://www.w3.org/2000/svg">
<rect width="1080" height="1080" rx="200" fill="white"/>
<path d="M271.955 744.632V763H145.347V744.632L181.427 740.04C186.237 739.165 189.736 738.291 191.923 737.416C194.109 736.104 196.077 733.261 197.827 728.888C199.576 724.515 201.981 717.517 205.043 707.896L330.339 316.92H386.755L512.707 707.896C515.768 717.517 518.173 724.515 519.923 728.888C521.672 733.261 523.64 736.104 525.827 737.416C528.451 738.291 531.949 739.165 536.323 740.04L572.403 744.632V763H391.347V744.632L427.427 740.04C434.424 739.165 438.141 737.416 438.579 734.792C439.453 731.731 437.485 722.765 432.675 707.896L407.747 626.552H256.211L230.627 707.896C226.253 722.765 224.285 731.731 224.723 734.792C225.16 737.416 228.877 739.165 235.875 740.04L271.955 744.632ZM264.083 603.592H400.531L332.963 385.8L264.083 603.592ZM870.012 650.168H888.38V763H563.66V744.632L599.74 740.04C606.737 739.165 610.892 737.416 612.204 734.792C613.516 731.731 614.172 722.765 614.172 707.896V372.024C614.172 357.155 613.516 348.408 612.204 345.784C610.892 342.723 606.737 340.755 599.74 339.88L563.66 335.288V316.92H881.82V429.752H863.452L842.46 356.936C841.148 351.688 839.617 347.971 837.868 345.784C836.556 343.16 833.713 341.629 829.34 341.192C824.966 340.317 817.532 339.88 807.036 339.88H692.892V526.184H767.676C778.172 526.184 785.606 525.965 789.98 525.528C794.353 524.653 797.196 523.123 798.508 520.936C800.257 518.312 801.788 514.376 803.1 509.128L817.532 455.992H835.9V619.336H817.532L803.1 566.2C801.788 560.952 800.257 557.235 798.508 555.048C797.196 552.424 794.353 550.893 789.98 550.456C785.606 549.581 778.172 549.144 767.676 549.144H692.892V740.04H813.596C824.092 740.04 831.526 739.821 835.9 739.384C840.273 738.509 843.116 736.979 844.428 734.792C846.177 732.168 847.708 728.232 849.02 722.984L870.012 650.168Z" fill="black"/>
</svg>
